PathFileType	4	(X/Y/Z)	/Users/itak/Documents/Research/Walk-IL/dataset/trc/00266_00009.trc
DataRate	CameraRate	NumFrames	NumMarkers	Units	OrigDataRate	OrigDataStartFrame	OrigNumFrames
100.000000	100.000000	4	54	mm	100.000000	157	421
Frame#	Time	RPSI			LPSI			L3			STRN			T10			C7			CLAV			RBAK			LBAK			LSHO			LUPA			LAEL			LAOL			LWTS			LWPS			LFRA			LIFD			LHPS			LHTS			RSHO			RUPA			RAEL			RAOL			RWPS			RFRA			RIFD			RHTS			RHPS			RBHD			LFHD			RFHD			LBHD			LHIP			RHIP			RASI			LASI			LKNE			LTHI			LANK			LTIP			LTOE			LMT1			LMT5			LHEE			RKNE			RTHI			RANK			RTIP			RTOE			RMT1			RMT5			RWTS			RHEE			*53			
		X1	Y1	Z1	X2	Y2	Z2	X3	Y3	Z3	X4	Y4	Z4	X5	Y5	Z5	X6	Y6	Z6	X7	Y7	Z7	X8	Y8	Z8	X9	Y9	Z9	X10	Y10	Z10	X11	Y11	Z11	X12	Y12	Z12	X13	Y13	Z13	X14	Y14	Z14	X15	Y15	Z15	X16	Y16	Z16	X17	Y17	Z17	X18	Y18	Z18	X19	Y19	Z19	X20	Y20	Z20	X21	Y21	Z21	X22	Y22	Z22	X23	Y23	Z23	X24	Y24	Z24	X25	Y25	Z25	X26	Y26	Z26	X27	Y27	Z27	X28	Y28	Z28	X29	Y29	Z29	X30	Y30	Z30	X31	Y31	Z31	X32	Y32	Z32	X33	Y33	Z33	X34	Y34	Z34	X35	Y35	Z35	X36	Y36	Z36	X37	Y37	Z37	X38	Y38	Z38	X39	Y39	Z39	X40	Y40	Z40	X41	Y41	Z41	X42	Y42	Z42	X43	Y43	Z43	X44	Y44	Z44	X45	Y45	Z45	X46	Y46	Z46	X47	Y47	Z47	X48	Y48	Z48	X49	Y49	Z49	X50	Y50	Z50	X51	Y51	Z51	X52	Y52	Z52	X53	Y53	Z53	X54	Y54	Z54	

158	1.57	-712.0933837890625	1016.462341308594	635.4498901367188	-793.674072265625	1017.290893554688	548.2416381835938	-762.8534545898438	1101.230102539062	583.7735595703125	-574.4447631835938	1271.406860351562	403.9866638183594	-755.6596069335938	1227.391845703125	585.0855712890625	-701.7763061523438	1485.262084960938	527.1824951171875	-586.6063232421875	1390.09423828125	417.6152038574219	-710.2451782226562	1350.37353515625	638.2802734375	-793.3519897460938	1448.41845703125	460.966552734375	-767.1915893554688	1445.517456054688	357.7337646484375	-852.071044921875	1331.223999023438	327.1733093261719	-887.93359375	1123.00830078125	312.7208251953125	-901.3798828125	1113.584594726562	399.3710327148438	-817.7542114257812	875.0669555664062	298.584228515625	-894.6937866210938	868.816162109375	264.148193359375	-898.1605834960938	1015.354431152344	294.077880859375	-852.1115112304688	681.9235229492188	299.9424133300781	-894.3480834960938	778.7843017578125	259.9022216796875	-825.9768676757812	772.191162109375	266.5376586914062	-544.2557373046875	1441.643310546875	609.321533203125	-512.5175170898438	1378.642578125	671.408203125	-495.8013000488281	1100.848266601562	730.2966918945312	-583.9888916015625	1092.042236328125	693.8649291992188	-418.2264709472656	872.0718994140625	687.63134765625	-467.3589172363281	1031.9638671875	721.2141723632812	-417.7964172363281	693.6327514648438	588.7644653320312	-388.7694396972656	767.133544921875	584.605712890625	-385.0023498535156	766.3359375	657.78076171875	-604.65234375	1641.560791015625	522.684326171875	-568.4306030273438	1660.237182617188	298.6957092285156	-485.8401794433594	1656.810546875	355.3815002441406	-689.3485717773438	1646.358032226562	410.7591247558594	-802.3079833984375	958.1726684570312	374.964111328125	-568.1104125976562	975.2921752929688	656.50244140625	-517.0780029296875	1015.253051757812	567.23193359375	-695.7697143554688	1000.544677734375	351.5107116699219	-606.8981323242188	512.8597412109375	294.473876953125	-678.1112060546875	641.4034423828125	304.0791625976562	-577.203857421875	34.2938117980957	354.5175170898438	-598.6712646484375	277.0891418457031	315.8172302246094	-402.6662292480469	48.14950561523438	217.4124145507812	-409.6870727539062	41.96516418457031	297.4804077148438	-512.9201049804688	37.50495147705078	242.9379425048828	-571.885498046875	40.0771369934082	434.1967468261719	-660.4351806640625	503.0796508789062	687.4317626953125	-557.5067138671875	750.441162109375	649.5656127929688	-930.96875	95.49762725830078	852.6394653320312	-711.0101318359375	392.714599609375	710.5714111328125	-790.54638671875	43.69524383544922	719.610595703125	-850.6766357421875	49.34844589233398	704.9393310546875	-836.95703125	44.11592483520508	824.9268188476562	-431.1160583496094	884.9071044921875	605.0050048828125	-1006.9853515625	131.4557189941406	833.2095947265625	nan	nan	nan	
159	1.58	-705.201904296875	1017.148498535156	628.4974975585938	-787.0606689453125	1018.15869140625	541.58935546875	-756.1141357421875	1102.014770507812	577.1971435546875	-568.8660278320312	1273.167114257812	397.1792907714844	-748.947265625	1227.974487304688	579.003662109375	-696.4922485351562	1486.192993164062	521.6483764648438	-581.5410766601562	1391.745849609375	411.2477416992188	-703.7412109375	1351.152954101562	632.5892333984375	-788.2249145507812	1449.232421875	455.7080688476562	-762.50927734375	1446.703979492188	352.4239196777344	-846.8609619140625	1332.144409179688	321.61279296875	-881.2723999023438	1123.776489257812	306.1027221679688	-894.7235107421875	1113.869262695312	392.7276611328125	-808.9390258789062	876.47998046875	290.6708374023438	-885.8014526367188	869.7437744140625	256.2113647460938	-890.5989990234375	1016.087585449219	286.857177734375	-841.6878051757812	683.069580078125	291.0465393066406	-884.6864624023438	779.7581176757812	251.5117645263672	-816.23291015625	773.686767578125	258.1510620117188	-538.2443237304688	1443.020385742188	602.7272338867188	-505.9399108886719	1379.945922851562	664.4876098632812	-489.4119873046875	1102.029296875	722.802734375	-577.8910522460938	1093.466552734375	686.8836059570312	-412.559814453125	872.9959106445312	680.5681762695312	-461.1781311035156	1033.115478515625	713.7839965820312	-413.537841796875	693.9495849609375	582.7801513671875	-384.2098083496094	767.2872924804688	578.0090942382812	-379.8410034179688	767.0021362304688	651.1822509765625	-599.3126831054688	1643.200561523438	516.2216796875	-564.378662109375	1661.213500976562	291.9713745117188	-481.4707641601562	1657.853393554688	348.19140625	-684.6622314453125	1647.842407226562	404.7804870605469	-796.2291259765625	959.1700439453125	368.2693176269531	-560.8639526367188	976.1761474609375	648.7521362304688	-510.5850830078125	1016.427185058594	559.6634521484375	-689.7490844726562	1001.952819824219	344.3807373046875	-601.64013671875	512.87890625	289.5869445800781	-672.5453491210938	641.759521484375	298.7392272949219	-576.8573608398438	34.59981155395508	354.3780517578125	-595.4691772460938	277.1212463378906	312.9766845703125	-401.4650573730469	46.20402145385742	217.5015869140625	-408.8467712402344	40.73682022094727	297.66943359375	-512.4241333007812	37.63178253173828	242.7853698730469	-571.7111206054688	40.3985595703125	434.0110778808594	-648.3687133789062	502.4755554199219	679.2352905273438	-549.3112182617188	750.9186401367188	641.0198974609375	-926.1517944335938	102.2705993652344	852.4652099609375	-699.9282836914062	392.6190185546875	703.9868774414062	-790.0130004882812	43.73102569580078	719.9108276367188	-849.0989990234375	51.1583137512207	704.9196166992188	-834.552490234375	46.65190124511719	824.8532104492188	-425.6607055664062	885.4768676757812	597.9425659179688	-1000.746520996094	140.9889678955078	832.6294555664062	nan	nan	nan	
160	1.59	-698.5698852539062	1017.915954589844	621.5281372070312	-780.5820922851562	1019.1298828125	534.8273315429688	-749.5194091796875	1102.881469726562	570.451416015625	-563.3663330078125	1275.03076171875	390.3883666992188	-742.378662109375	1228.599487304688	572.8610229492188	-691.25732421875	1487.217651367188	516.13037109375	-576.530517578125	1393.504638671875	404.8999328613281	-697.3228149414062	1352.00732421875	626.8959350585938	-783.1463012695312	1450.152954101562	450.4518127441406	-757.8749389648438	1448.034423828125	347.1332092285156	-841.7174072265625	1333.239990234375	316.0386962890625	-874.7084350585938	1124.714599609375	299.4393005371094	-888.2035522460938	1114.306640625	386.0292053222656	-799.9402465820312	878.2026977539062	282.6777954101562	-876.70703125	870.8718872070312	248.1736907958984	-883.03515625	1016.992553710938	279.5703430175781	-830.7321166992188	684.49951171875	282.0113525390625	-874.6610717773438	780.9346313476562	242.9993133544922	-806.12744140625	775.5114135742188	249.6536865234375	-532.3087768554688	1444.473876953125	596.1443481445312	-499.4275512695312	1381.32958984375	657.5753173828125	-482.8939208984375	1103.3125	715.3207397460938	-571.6193237304688	1094.944580078125	679.9200439453125	-406.7811584472656	874.0354614257812	673.4267578125	-454.8813781738281	1034.376953125	706.3397827148438	-409.3755798339844	694.3809814453125	576.7459716796875	-379.717041015625	767.5369873046875	571.3117065429688	-374.6180725097656	767.754150390625	644.4432983398438	-593.9473876953125	1644.953857421875	509.8211364746094	-560.3277587890625	1662.244995117188	285.3038940429688	-477.100830078125	1658.923706054688	341.0600280761719	-679.9462280273438	1649.446411132812	398.8591613769531	-790.1890869140625	960.1768188476562	361.4527587890625	-554.05322265625	977.153564453125	641.2182006835938	-504.2767944335938	1017.739379882812	552.2054443359375	-683.750244140625	1003.312866210938	337.2394714355469	-596.9819946289062	512.6124877929688	285.2141723632812	-667.569580078125	641.7872924804688	293.7745666503906	-576.56884765625	34.86737060546875	354.2785339355469	-592.7010498046875	277.0335083007812	310.6138916015625	-400.5510864257812	44.87803649902344	217.6590423583984	-408.1655883789062	39.8124885559082	297.864501953125	-511.97509765625	37.81976699829102	242.7312774658203	-571.531982421875	40.63437271118164	433.9259948730469	-635.7149047851562	501.771728515625	670.7786254882812	-541.0506591796875	751.5537109375	632.5308227539062	-920.553466796875	109.7785339355469	852.1810302734375	-688.1679077148438	392.4256896972656	696.96923828125	-789.0545043945312	43.68635559082031	720.11962890625	-847.2074584960938	53.3282585144043	704.9467163085938	-831.6109008789062	49.90179824829102	824.7448120117188	-420.197021484375	886.1802368164062	590.8218994140625	-993.6212158203125	151.1483612060547	831.974365234375	nan	nan	nan	
161	1.6	-692.1665649414062	1018.721069335938	614.6179809570312	-774.2144165039062	1020.192749023438	528.0237426757812	-743.1004638671875	1103.814208984375	563.6133422851562	-557.946044921875	1276.950317382812	383.639892578125	-735.9987182617188	1229.258178710938	566.6806030273438	-686.0747680664062	1488.303955078125	510.6228942871094	-571.565673828125	1395.322021484375	398.58544921875	-691.0354614257812	1352.900024414062	621.1708374023438	-778.1160278320312	1451.14697265625	445.1832885742188	-753.2788696289062	1449.459594726562	341.84716796875	-836.64208984375	1334.4619140625	310.4559936523438	-868.268798828125	1125.775146484375	292.74072265625	-881.8394165039062	1114.851440429688	379.2911682128906	-790.79736328125	880.201171875	274.6188049316406	-867.4480590820312	872.1588745117188	240.0492095947266	-875.5009155273438	1018.027587890625	272.2329406738281	-819.2409057617188	686.1939697265625	272.8281860351562	-864.2975463867188	782.2805786132812	234.3725433349609	-795.692626953125	777.6450805664062	241.0409545898438	-526.4784545898438	1445.959594726562	589.6064453125	-493.034912109375	1382.748657226562	650.7114868164062	-476.2647705078125	1104.654296875	707.8770141601562	-565.1864624023438	1096.405639648438	673.0089721679688	-400.8703308105469	875.1589965820312	666.1988525390625	-448.46875	1035.706665039062	698.894775390625	-405.259765625	694.9218139648438	570.6016235351562	-375.2587890625	767.8843383789062	564.474609375	-369.324951171875	768.5653686523438	637.5321044921875	-588.5701293945312	1646.771728515625	503.4951477050781	-556.2781982421875	1663.322387695312	278.7098693847656	-472.7355346679688	1660.012939453125	334.0099792480469	-675.2181396484375	1651.12548828125	392.9980163574219	-784.220947265625	961.22607421875	354.6015014648438	-547.6449584960938	978.1401977539062	633.9505615234375	-498.1385192871094	1019.122436523438	544.8908081054688	-677.795166015625	1004.620788574219	330.1448059082031	-592.8837280273438	512.1661376953125	281.2865295410156	-663.029052734375	641.6590576171875	289.1339721679688	-576.360595703125	35.08856201171875	354.2080993652344	-590.3667602539062	276.8681640625	308.6598815917969	-399.9071655273438	44.05243301391602	217.842529296875	-407.6487121582031	39.13827896118164	298.0433044433594	-511.595458984375	38.01330947875977	242.7472686767578	-571.3717651367188	40.79757308959961	433.9156188964844	-622.5596923828125	500.9584655761719	662.0459594726562	-532.755126953125	752.3192138671875	624.1588134765625	-914.1055908203125	117.9930267333984	851.7022094726562	-675.8092041015625	392.1291198730469	689.4619140625	-787.5025634765625	43.53673553466797	720.1297607421875	-844.9119262695312	55.91041564941406	704.9566040039062	-828.0369262695312	53.92115020751953	824.5067138671875	-414.7220153808594	886.997314453125	583.6395263671875	-985.5848999023438	161.8457489013672	831.203857421875	nan	nan	nan	
